<svg class="load" viewBox="0 0 780 780" fill="none" xmlns="http://www.w3.org/2000/svg" style="background-color: transparent;">
    <path fill-rule="evenodd" clip-rule="evenodd" d="M466.5 409L650 130L245 130L466.5 409ZM415.838 344.028L513.46 195.6L298 195.6L415.838 344.028Z" fill="white" />
    <path fill-rule="evenodd" clip-rule="evenodd" d="M313.5 371L130 650L535 650L313.5 371ZM364.162 435.972L266.54 584.4L482 584.4L364.162 435.972Z" fill="white" />
    <path d="M239 186C239 216.928 214.6 242 184.5 242C154.4 242 130 216.928 130 186C130 155.072 154.4 130 184.5 130C214.6 130 239 155.072 239 186Z" fill="white" />
    <path d="M650 594C650 624.928 625.599 650 595.5 650C565.401 650 541 624.928 541 594C541 563.072 565.401 538 595.5 538C625.599 538 650 563.072 650 594Z" fill="white" />
</svg>
