<svg xmlns="http://www.w3.org/2000/svg" width="100" height="100" viewBox="0 0 100 100">
<g clip-path="url(#clip0_1_2)">
<path d="M55 63.557C55 60.0127 54.8806 59.1266 50.5821 59C50.5767 59.0499 50.5852 59.1004 50.6064 59.1454C50.6276 59.1903 50.6606 59.2278 50.7015 59.2532C50.7015 59.7567 50.5128 60.2397 50.1769 60.5958C49.841 60.9519 49.3855 61.1519 48.9104 61.1519C48.4354 61.1519 47.9799 60.9519 47.644 60.5958C47.3081 60.2397 47.1194 59.7567 47.1194 59.2532V59C43.2388 59.1899 43 60.0759 43 63.4304V64C44.6119 64 44.6119 62.5443 45.3881 62.5443C45.3881 63.0506 45.806 63.4937 46.5821 64C47 63.0506 47.4179 62.5443 47.7761 62.5443C47.7761 63.0506 48.194 63.4937 48.9701 64L49.1493 63.9367C49.8657 63.4304 50.2239 62.9873 50.2239 62.5443C50.5821 62.5443 50.9403 63.0506 51.4179 64C52.194 63.4937 52.6119 63.0506 52.6119 62.5443C53.3284 62.5443 53.3284 64 55 64V63.557Z" fill="#24292F"/>
<path fill-rule="evenodd" clip-rule="evenodd" d="M48.854 0C21.839 0 0 22 0 49.217C0 70.973 13.993 89.389 33.405 95.907C35.832 96.397 36.721 94.848 36.721 93.545C36.721 92.404 36.641 88.493 36.641 84.418C23.051 87.352 20.221 78.551 20.221 78.551C18.037 72.847 14.801 71.381 14.801 71.381C10.353 68.366 15.125 68.366 15.125 68.366C20.059 68.692 22.648 73.418 22.648 73.418C27.015 80.914 34.052 78.796 36.883 77.492C37.287 74.314 38.582 72.114 39.957 70.892C29.118 69.751 17.714 65.514 17.714 46.609C17.714 41.231 19.654 36.831 22.728 33.409C22.243 32.187 20.544 27.134 23.214 20.371C23.214 20.371 27.339 19.067 36.64 25.423C40.6221 24.3457 44.7288 23.7976 48.854 23.793C52.979 23.793 57.184 24.364 61.067 25.423C70.369 19.067 74.494 20.371 74.494 20.371C77.164 27.134 75.464 32.187 74.979 33.409C78.134 36.831 79.994 41.231 79.994 46.609C79.994 65.514 68.59 69.669 57.67 70.892C59.45 72.44 60.986 75.373 60.986 80.018C60.986 86.618 60.906 91.915 60.906 93.544C60.906 94.848 61.796 96.397 64.222 95.908C83.634 89.388 97.627 70.973 97.627 49.217C97.707 22 75.788 0 48.854 0Z" fill="#24292F"/>
<path fill-rule="evenodd" clip-rule="evenodd" d="M48.8186 14.1801C51.3853 16.0908 51.4231 17.2231 51.4481 17.9721C51.4529 18.1156 51.4573 18.245 51.4788 18.3632C54.0224 17.8205 56.7263 17.8787 59.1506 18.5283C60.9445 19.0473 62.0686 19.9359 62.1993 20.6034C61.0751 20.7344 60.0454 21.1446 59.3079 21.7552C61.6098 22.1687 63.7071 22.969 65.4149 24.0856C66.2678 24.6826 67.0157 25.3442 67.6464 26.0574C67.7058 26.098 67.7632 26.1389 67.8186 26.1801C70.3853 28.0908 70.4231 29.2231 70.4481 29.9721C70.4529 30.1156 70.4573 30.245 70.4788 30.3632C73.0224 29.8205 75.7263 29.8787 78.1506 30.5283C79.9445 31.0473 81.0686 31.9359 81.1993 32.6034C80.0751 32.7345 79.0454 33.1446 78.3079 33.7552C80.6098 34.1687 82.7071 34.969 84.4149 36.0856C85.8889 37.1174 87.0493 38.342 87.8331 39.6926C87.9089 39.7701 87.9515 39.8613 87.9561 39.9562C87.9607 40.051 87.9272 40.1459 87.8594 40.2304C86.966 40.9653 85.9796 41.645 84.9125 42.2609C83.6585 42.9826 82.3461 43.6541 80.9822 44.272C82.5833 44.8678 83.3969 45.4346 83.5277 46.1021C82.1892 46.4407 81.3001 46.713 80.4435 46.9754C80.2442 47.0364 80.0466 47.097 79.8456 47.1576C79.6038 47.2368 79.2403 47.3388 78.8041 47.4611C78.3679 47.5835 77.8591 47.7262 77.3265 47.8869C78.5507 40.7516 72.0486 40.3947 69.108 40.5381C68.0392 40.5902 67.2232 40.9388 66.4387 41.2741C65.7123 41.5844 65.0129 41.8833 64.1647 41.9246C63.3268 41.9655 62.631 41.741 61.9004 41.5053C61.0926 41.2446 60.2423 40.9703 59.11 41.0255C56.9536 41.1306 50.9353 42.637 52.3085 48.6348C51.6976 48.5385 51.1001 48.4099 50.5212 48.2503C48.9125 47.992 47.2571 47.8691 45.5907 47.8841C45.462 47.9048 45.3285 47.8915 45.217 47.847C45.1055 47.8024 45.0242 47.7299 44.9895 47.6439C44.9781 47.6111 44.9764 47.5768 44.9846 47.5431L44.9747 47.3414C45.2049 46.6508 45.5887 45.9878 46.1093 45.3753C46.0125 45.4027 45.9106 45.4312 45.8044 45.461C45.3683 45.5833 44.8588 45.7263 44.3265 45.8869C44.731 43.5294 44.2921 41.9119 43.4168 40.8079C42.7532 40.728 42.082 40.6726 41.4058 40.6419C41.3777 40.6394 41.3502 40.6371 41.3234 40.6349C40.8807 40.5981 40.6334 40.5776 40.8829 39.9935C41.0141 39.7379 41.1479 39.4901 41.2842 39.2502C39.5321 38.5114 37.4495 38.4727 36.108 38.5381C35.0392 38.5902 34.2232 38.9388 33.4387 39.2741C32.7123 39.5844 32.0129 39.8833 31.1647 39.9246C30.3268 39.9655 29.631 39.741 28.9004 39.5053C28.0926 39.2446 27.2423 38.9703 26.11 39.0255C23.9536 39.1306 17.9353 40.637 19.3085 46.6348C18.6976 46.5385 18.1001 46.4099 17.5212 46.2503C15.9125 45.992 14.2571 45.8691 12.5907 45.8841C12.462 45.9048 12.3285 45.8915 12.217 45.847C12.1055 45.8024 12.0242 45.7299 11.9895 45.6439C11.9781 45.6111 11.9764 45.5768 11.9846 45.5431L11.9747 45.3414C12.3425 44.2379 13.1027 43.2047 14.1863 42.3359C14.8495 41.8319 16.0942 41.1647 16.5876 41.2081C15.727 40.3603 14.5406 39.6964 13.1533 39.2865C11.625 38.9321 10.0295 38.7155 8.40577 38.6419L8.32341 38.6349C7.88069 38.5981 7.63341 38.5776 7.8829 37.9935C9.40831 35.0215 11.2802 33.1108 13.5934 32.1894C15.3437 31.3964 17.3639 30.9477 19.4254 30.8943C19.1946 30.3134 18.8366 29.7629 18.3633 29.2614C18.006 28.8178 17.591 28.3982 17.1231 28.0078C17.0124 27.9119 16.958 27.7902 16.97 27.6656C16.982 27.541 17.0597 27.4219 17.1884 27.3307C17.2374 27.3284 17.2856 27.3092 17.3338 27.29C17.382 27.2708 17.4302 27.2516 17.4792 27.2492C18.4874 27.0791 19.531 27.0745 20.5243 27.2355C21.0656 27.3261 21.5863 27.4559 22.0785 27.6217C22.6178 26.6221 23.1993 25.7497 23.8268 25.0017C23.5512 24.01 23.1848 23.0321 22.729 22.074C22.6354 21.2625 25.381 21.2927 28.3786 21.8634C29.936 21.2735 31.6657 20.9399 33.4254 20.8943C33.1946 20.3134 32.8366 19.7629 32.3633 19.2614C32.006 18.8177 31.591 18.3982 31.1231 18.0078C31.0124 17.9119 30.958 17.7902 30.97 17.6656C30.982 17.5409 31.0597 17.4219 31.1884 17.3307C31.2374 17.3284 31.2856 17.3092 31.3338 17.29C31.382 17.2708 31.4302 17.2516 31.4792 17.2492C32.4874 17.0791 33.531 17.0745 34.5243 17.2355C36.0507 17.491 37.4132 18.0584 38.4356 18.8643C38.3426 16.5445 37.768 14.258 36.729 12.074C36.5589 10.5998 45.76 11.9033 48.8186 14.1801ZM48.2135 42.1665C48.1365 42.2018 48.0594 42.237 47.9822 42.272C48.3683 42.4156 48.7086 42.5576 49.0046 42.6998C48.7587 42.5094 48.4943 42.3313 48.2135 42.1665ZM49.8017 33.1795C48.4483 32.5293 46.9288 32.0464 45.3079 31.7552C46.0454 31.1446 47.0751 30.7344 48.1993 30.6034C48.1275 30.2368 47.7561 29.8036 47.1386 29.4014C47.2384 29.3596 47.3383 29.317 47.4387 29.2741C48.2232 28.9388 49.0392 28.5902 50.108 28.5381C52.0835 28.4418 55.6664 28.5712 57.4342 30.8299C57.4347 30.8414 57.4351 30.8528 57.4356 30.8643C56.4132 30.0584 55.0507 29.491 53.5243 29.2355C52.531 29.0745 51.4874 29.0791 50.4792 29.2492C50.4302 29.2516 50.382 29.2708 50.3338 29.29C50.2856 29.3092 50.2374 29.3284 50.1884 29.3307C50.0597 29.4219 49.982 29.541 49.97 29.6656C49.958 29.7902 50.0124 29.9119 50.1231 30.0078C50.591 30.3982 51.006 30.8178 51.3633 31.2614C51.8366 31.7629 52.1946 32.3134 52.4254 32.8943C51.5371 32.9173 50.6564 33.0137 49.8017 33.1795ZM24.3531 28.8003L24.4333 28.8099L24.4356 28.8643C24.4083 28.8428 24.3808 28.8214 24.3531 28.8003Z" fill="white"/>
<path d="M46 46.5H51M47 48.5C47 54.299 42.299 59 36.5 59C30.701 59 26 54.299 26 48.5C26 42.701 30.701 38 36.5 38C42.299 38 47 42.701 47 48.5ZM71 48.5C71 54.299 66.299 59 60.5 59C54.701 59 50 54.299 50 48.5C50 42.701 54.701 38 60.5 38C66.299 38 71 42.701 71 48.5Z" stroke="#24292F" stroke-width="3"/>
</g>
<defs>
<clipPath id="clip0_1_2">
<rect width="98" height="96" fill="white"/>
</clipPath>
</defs>
</svg>
